<svg xmlns="http://www.w3.org/2000/svg" width="1600" height="640" viewBox="0 0 1600 640" font-family="Inter, 'Helvetica Neue', Helvetica, Arial, sans-serif">
<rect width="1600" height="640" fill="#0A0A0C"/>
<rect x="0.5" y="0.5" width="1599" height="639" rx="20" fill="none" stroke="#FFFFFF" stroke-opacity="0.05"/>
<text x="48" y="56" font-family="Inter, 'Helvetica Neue', Helvetica, Arial, sans-serif" font-size="30" font-weight="700" fill="#F5F5F7" letter-spacing="-0.5">LifeOS<tspan fill="#6E6E78" font-weight="500">  ·  Core Components</tspan></text><text x="1552" y="54" text-anchor="end" font-family="Inter, 'Helvetica Neue', Helvetica, Arial, sans-serif" font-size="18" font-weight="500" fill="#8B5CF6">Current → Ideal State</text><rect x="48" y="96" width="234" height="196" rx="16" fill="#3B82F6" fill-opacity="0.07" stroke="#3B82F6" stroke-opacity="0.32" stroke-width="1.2"/><rect x="68" y="116" width="44" height="44" rx="13" fill="#3B82F6" fill-opacity="0.15" stroke="#3B82F6" stroke-opacity="0.28" stroke-width="1"/><g transform="translate(79,127) scale(0.9166666666666666)" fill="none" stroke="#3B82F6" stroke-width="2" stroke-linecap="round" stroke-linejoin="round"><circle cx="12" cy="12" r="10"/><circle cx="12" cy="12" r="6"/><circle cx="12" cy="12" r="2"/></g><text x="68" y="188" font-family="Inter, 'Helvetica Neue', Helvetica, Arial, sans-serif" font-size="18" font-weight="600" fill="#F5F5F7">Current → Ideal</text><text x="68" y="210" font-family="Inter, 'Helvetica Neue', Helvetica, Arial, sans-serif" font-size="18" font-weight="600" fill="#F5F5F7">State</text><text x="68" y="244" font-family="Inter, 'Helvetica Neue', Helvetica, Arial, sans-serif" font-size="13" font-weight="400" fill="#9A9AA3">Name where you are and</text><text x="68" y="262" font-family="Inter, 'Helvetica Neue', Helvetica, Arial, sans-serif" font-size="13" font-weight="400" fill="#9A9AA3">where you want to go.</text><rect x="302" y="96" width="234" height="196" rx="16" fill="#22C55E" fill-opacity="0.07" stroke="#22C55E" stroke-opacity="0.32" stroke-width="1.2"/><rect x="322" y="116" width="44" height="44" rx="13" fill="#22C55E" fill-opacity="0.15" stroke="#22C55E" stroke-opacity="0.28" stroke-width="1"/><g transform="translate(333,127) scale(0.9166666666666666)" fill="none" stroke="#22C55E" stroke-width="2" stroke-linecap="round" stroke-linejoin="round"><path d="M16 7h6v6"/><path d="m22 7-8.5 8.5-5-5L2 17"/></g><text x="322" y="188" font-family="Inter, 'Helvetica Neue', Helvetica, Arial, sans-serif" font-size="18" font-weight="600" fill="#F5F5F7">General Hill</text><text x="322" y="210" font-family="Inter, 'Helvetica Neue', Helvetica, Arial, sans-serif" font-size="18" font-weight="600" fill="#F5F5F7">Climbing</text><text x="322" y="244" font-family="Inter, 'Helvetica Neue', Helvetica, Arial, sans-serif" font-size="13" font-weight="400" fill="#9A9AA3">Pick the next move that</text><text x="322" y="262" font-family="Inter, 'Helvetica Neue', Helvetica, Arial, sans-serif" font-size="13" font-weight="400" fill="#9A9AA3">closes the gap.</text><rect x="556" y="96" width="234" height="196" rx="16" fill="#EAB308" fill-opacity="0.07" stroke="#EAB308" stroke-opacity="0.32" stroke-width="1.2"/><rect x="576" y="116" width="44" height="44" rx="13" fill="#EAB308" fill-opacity="0.15" stroke="#EAB308" stroke-opacity="0.28" stroke-width="1"/><g transform="translate(587,127) scale(0.9166666666666666)" fill="none" stroke="#EAB308" stroke-width="2" stroke-linecap="round" stroke-linejoin="round"><path d="M11.017 2.814a1 1 0 0 1 1.966 0l1.051 5.558a2 2 0 0 0 1.594 1.594l5.558 1.051a1 1 0 0 1 0 1.966l-5.558 1.051a2 2 0 0 0-1.594 1.594l-1.051 5.558a1 1 0 0 1-1.966 0l-1.051-5.558a2 2 0 0 0-1.594-1.594l-5.558-1.051a1 1 0 0 1 0-1.966l5.558-1.051a2 2 0 0 0 1.594-1.594z"/><path d="M20 2v4"/><path d="M22 4h-4"/><circle cx="4" cy="20" r="2"/></g><text x="576" y="188" font-family="Inter, 'Helvetica Neue', Helvetica, Arial, sans-serif" font-size="18" font-weight="600" fill="#F5F5F7">Euphoric Surprise</text><text x="576" y="244" font-family="Inter, 'Helvetica Neue', Helvetica, Arial, sans-serif" font-size="13" font-weight="400" fill="#9A9AA3">The 9–10 moment:</text><text x="576" y="262" font-family="Inter, 'Helvetica Neue', Helvetica, Arial, sans-serif" font-size="13" font-weight="400" fill="#9A9AA3">“OMG, this is brilliant.”</text><rect x="810" y="96" width="234" height="196" rx="16" fill="#14B8A6" fill-opacity="0.07" stroke="#14B8A6" stroke-opacity="0.32" stroke-width="1.2"/><rect x="830" y="116" width="44" height="44" rx="13" fill="#14B8A6" fill-opacity="0.15" stroke="#14B8A6" stroke-opacity="0.28" stroke-width="1"/><g transform="translate(841,127) scale(0.9166666666666666)" fill="none" stroke="#14B8A6" stroke-width="2" stroke-linecap="round" stroke-linejoin="round"><path d="m16.24 7.76-1.804 5.411a2 2 0 0 1-1.265 1.265L7.76 16.24l1.804-5.411a2 2 0 0 1 1.265-1.265z"/><circle cx="12" cy="12" r="10"/></g><text x="830" y="188" font-family="Inter, 'Helvetica Neue', Helvetica, Arial, sans-serif" font-size="18" font-weight="600" fill="#F5F5F7">TELOS</text><text x="830" y="244" font-family="Inter, 'Helvetica Neue', Helvetica, Arial, sans-serif" font-size="13" font-weight="400" fill="#9A9AA3">Your mission, goals,</text><text x="830" y="262" font-family="Inter, 'Helvetica Neue', Helvetica, Arial, sans-serif" font-size="13" font-weight="400" fill="#9A9AA3">and beliefs.</text><rect x="1064" y="96" width="234" height="196" rx="16" fill="#8B5CF6" fill-opacity="0.07" stroke="#8B5CF6" stroke-opacity="0.32" stroke-width="1.2"/><rect x="1084" y="116" width="44" height="44" rx="13" fill="#8B5CF6" fill-opacity="0.15" stroke="#8B5CF6" stroke-opacity="0.28" stroke-width="1"/><g transform="translate(1095,127) scale(0.9166666666666666)" fill="none" stroke="#8B5CF6" stroke-width="2" stroke-linecap="round" stroke-linejoin="round"><rect width="8" height="8" x="3" y="3" rx="2"/><path d="M7 11v4a2 2 0 0 0 2 2h4"/><rect width="8" height="8" x="13" y="13" rx="2"/></g><text x="1084" y="188" font-family="Inter, 'Helvetica Neue', Helvetica, Arial, sans-serif" font-size="18" font-weight="600" fill="#F5F5F7">The Algorithm</text><text x="1084" y="244" font-family="Inter, 'Helvetica Neue', Helvetica, Arial, sans-serif" font-size="13" font-weight="400" fill="#9A9AA3">Seven phases: vague ask</text><text x="1084" y="262" font-family="Inter, 'Helvetica Neue', Helvetica, Arial, sans-serif" font-size="13" font-weight="400" fill="#9A9AA3">to verified done.</text><rect x="1318" y="96" width="234" height="196" rx="16" fill="#A855F7" fill-opacity="0.07" stroke="#A855F7" stroke-opacity="0.32" stroke-width="1.2"/><rect x="1338" y="116" width="44" height="44" rx="13" fill="#A855F7" fill-opacity="0.15" stroke="#A855F7" stroke-opacity="0.28" stroke-width="1"/><g transform="translate(1349,127) scale(0.9166666666666666)" fill="none" stroke="#A855F7" stroke-width="2" stroke-linecap="round" stroke-linejoin="round"><rect width="8" height="4" x="8" y="2" rx="1" ry="1"/><path d="M16 4h2a2 2 0 0 1 2 2v14a2 2 0 0 1-2 2H6a2 2 0 0 1-2-2V6a2 2 0 0 1 2-2h2"/><path d="m9 14 2 2 4-4"/></g><text x="1338" y="188" font-family="Inter, 'Helvetica Neue', Helvetica, Arial, sans-serif" font-size="18" font-weight="600" fill="#F5F5F7">The ISA</text><text x="1338" y="244" font-family="Inter, 'Helvetica Neue', Helvetica, Arial, sans-serif" font-size="13" font-weight="400" fill="#9A9AA3">One document for what</text><text x="1338" y="262" font-family="Inter, 'Helvetica Neue', Helvetica, Arial, sans-serif" font-size="13" font-weight="400" fill="#9A9AA3">“done” looks like.</text><rect x="48" y="314" width="234" height="196" rx="16" fill="#FFFFFF" fill-opacity="0.02" stroke="#FFFFFF" stroke-opacity="0.07" stroke-width="1.2"/><rect x="68" y="334" width="44" height="44" rx="13" fill="#6366F1" fill-opacity="0.15" stroke="#6366F1" stroke-opacity="0.28" stroke-width="1"/><g transform="translate(79,345) scale(0.9166666666666666)" fill="none" stroke="#6366F1" stroke-width="2" stroke-linecap="round" stroke-linejoin="round"><path d="M10 22V7a1 1 0 0 0-1-1H4a2 2 0 0 0-2 2v12a2 2 0 0 0 2 2h12a2 2 0 0 0 2-2v-5a1 1 0 0 0-1-1H2"/><rect x="14" y="2" width="8" height="8" rx="1"/></g><text x="68" y="406" font-family="Inter, 'Helvetica Neue', Helvetica, Arial, sans-serif" font-size="18" font-weight="600" fill="#F5F5F7">The Skill System</text><text x="68" y="462" font-family="Inter, 'Helvetica Neue', Helvetica, Arial, sans-serif" font-size="13" font-weight="400" fill="#9A9AA3">Self-activating units</text><text x="68" y="480" font-family="Inter, 'Helvetica Neue', Helvetica, Arial, sans-serif" font-size="13" font-weight="400" fill="#9A9AA3">of expertise.</text><rect x="302" y="314" width="234" height="196" rx="16" fill="#FFFFFF" fill-opacity="0.02" stroke="#FFFFFF" stroke-opacity="0.07" stroke-width="1.2"/><rect x="322" y="334" width="44" height="44" rx="13" fill="#6366F1" fill-opacity="0.15" stroke="#6366F1" stroke-opacity="0.28" stroke-width="1"/><g transform="translate(333,345) scale(0.9166666666666666)" fill="none" stroke="#6366F1" stroke-width="2" stroke-linecap="round" stroke-linejoin="round"><path d="M18 16.98h-5.99c-1.1 0-1.95.94-2.48 1.9A4 4 0 0 1 2 17c.01-.7.2-1.4.57-2"/><path d="m6 17 3.13-5.78c.53-.97.1-2.18-.5-3.1a4 4 0 1 1 6.89-4.06"/><path d="m12 6 3.13 5.73C15.66 12.7 16.9 13 18 13a4 4 0 0 1 0 8"/></g><text x="322" y="406" font-family="Inter, 'Helvetica Neue', Helvetica, Arial, sans-serif" font-size="18" font-weight="600" fill="#F5F5F7">The Hook System</text><text x="322" y="462" font-family="Inter, 'Helvetica Neue', Helvetica, Arial, sans-serif" font-size="13" font-weight="400" fill="#9A9AA3">Guardrails that are code,</text><text x="322" y="480" font-family="Inter, 'Helvetica Neue', Helvetica, Arial, sans-serif" font-size="13" font-weight="400" fill="#9A9AA3">not good intentions.</text><rect x="556" y="314" width="234" height="196" rx="16" fill="#FFFFFF" fill-opacity="0.02" stroke="#FFFFFF" stroke-opacity="0.07" stroke-width="1.2"/><rect x="576" y="334" width="44" height="44" rx="13" fill="#0EA5E9" fill-opacity="0.15" stroke="#0EA5E9" stroke-opacity="0.28" stroke-width="1"/><g transform="translate(587,345) scale(0.9166666666666666)" fill="none" stroke="#0EA5E9" stroke-width="2" stroke-linecap="round" stroke-linejoin="round"><path d="M16 3h5v5"/><path d="M8 3H3v5"/><path d="M12 22v-8.3a4 4 0 0 0-1.172-2.872L3 3"/><path d="m15 9 6-6"/></g><text x="576" y="406" font-family="Inter, 'Helvetica Neue', Helvetica, Arial, sans-serif" font-size="18" font-weight="600" fill="#F5F5F7">The Router System</text><text x="576" y="462" font-family="Inter, 'Helvetica Neue', Helvetica, Arial, sans-serif" font-size="13" font-weight="400" fill="#9A9AA3">Right effort, right model,</text><text x="576" y="480" font-family="Inter, 'Helvetica Neue', Helvetica, Arial, sans-serif" font-size="13" font-weight="400" fill="#9A9AA3">every prompt.</text><rect x="810" y="314" width="234" height="196" rx="16" fill="#FFFFFF" fill-opacity="0.02" stroke="#FFFFFF" stroke-opacity="0.07" stroke-width="1.2"/><rect x="830" y="334" width="44" height="44" rx="13" fill="#10B981" fill-opacity="0.15" stroke="#10B981" stroke-opacity="0.28" stroke-width="1"/><g transform="translate(841,345) scale(0.9166666666666666)" fill="none" stroke="#10B981" stroke-width="2" stroke-linecap="round" stroke-linejoin="round"><path d="M22 12h-2.48a2 2 0 0 0-1.93 1.46l-2.35 8.36a.25.25 0 0 1-.48 0L9.24 2.18a.25.25 0 0 0-.48 0l-2.35 8.36A2 2 0 0 1 4.49 12H2"/></g><text x="830" y="406" font-family="Inter, 'Helvetica Neue', Helvetica, Arial, sans-serif" font-size="18" font-weight="600" fill="#F5F5F7">Pulse</text><text x="830" y="462" font-family="Inter, 'Helvetica Neue', Helvetica, Arial, sans-serif" font-size="13" font-weight="400" fill="#9A9AA3">The live Life Dashboard</text><text x="830" y="480" font-family="Inter, 'Helvetica Neue', Helvetica, Arial, sans-serif" font-size="13" font-weight="400" fill="#9A9AA3">where you watch it run.</text><rect x="1064" y="314" width="234" height="196" rx="16" fill="#FFFFFF" fill-opacity="0.02" stroke="#FFFFFF" stroke-opacity="0.07" stroke-width="1.2"/><rect x="1084" y="334" width="44" height="44" rx="13" fill="#F59E0B" fill-opacity="0.15" stroke="#F59E0B" stroke-opacity="0.28" stroke-width="1"/><g transform="translate(1095,345) scale(0.9166666666666666)" fill="none" stroke="#F59E0B" stroke-width="2" stroke-linecap="round" stroke-linejoin="round"><path d="M12 2v4"/><path d="m16.2 7.8 2.9-2.9"/><path d="M18 12h4"/><path d="m16.2 16.2 2.9 2.9"/><path d="M12 18v4"/><path d="m4.9 19.1 2.9-2.9"/><path d="M2 12h4"/><path d="m4.9 4.9 2.9 2.9"/></g><text x="1084" y="406" font-family="Inter, 'Helvetica Neue', Helvetica, Arial, sans-serif" font-size="18" font-weight="600" fill="#F5F5F7">Custom Spinner</text><text x="1084" y="428" font-family="Inter, 'Helvetica Neue', Helvetica, Arial, sans-serif" font-size="18" font-weight="600" fill="#F5F5F7">Verbs</text><text x="1084" y="462" font-family="Inter, 'Helvetica Neue', Helvetica, Arial, sans-serif" font-size="13" font-weight="400" fill="#9A9AA3">Your own working-verb</text><text x="1084" y="480" font-family="Inter, 'Helvetica Neue', Helvetica, Arial, sans-serif" font-size="13" font-weight="400" fill="#9A9AA3">in the statusline.</text><rect x="1318" y="314" width="234" height="196" rx="16" fill="#FFFFFF" fill-opacity="0.02" stroke="#FFFFFF" stroke-opacity="0.07" stroke-width="1.2"/><rect x="1338" y="334" width="44" height="44" rx="13" fill="#EC4899" fill-opacity="0.15" stroke="#EC4899" stroke-opacity="0.28" stroke-width="1"/><g transform="translate(1349,345) scale(0.9166666666666666)" fill="none" stroke="#EC4899" stroke-width="2" stroke-linecap="round" stroke-linejoin="round"><path d="M22 17a2 2 0 0 1-2 2H6.828a2 2 0 0 0-1.414.586l-2.202 2.202A.71.71 0 0 1 2 21.286V5a2 2 0 0 1 2-2h16a2 2 0 0 1 2 2z"/></g><text x="1338" y="406" font-family="Inter, 'Helvetica Neue', Helvetica, Arial, sans-serif" font-size="18" font-weight="600" fill="#F5F5F7">Custom Tooltips</text><text x="1338" y="462" font-family="Inter, 'Helvetica Neue', Helvetica, Arial, sans-serif" font-size="13" font-weight="400" fill="#9A9AA3">The dashboard explains</text><text x="1338" y="480" font-family="Inter, 'Helvetica Neue', Helvetica, Arial, sans-serif" font-size="13" font-weight="400" fill="#9A9AA3">itself on hover.</text><line x1="48" y1="540" x2="1552" y2="540" stroke="#FFFFFF" stroke-opacity="0.06" stroke-width="1"/><text x="48" y="568" font-family="Inter, 'Helvetica Neue', Helvetica, Arial, sans-serif" font-size="12" font-weight="600" letter-spacing="1.5" fill="#6E6E78">SUPPORTING COMPONENTS</text><g transform="translate(49,589) scale(0.6666666666666666)" fill="none" stroke="#8B8B93" stroke-width="2" stroke-linecap="round" stroke-linejoin="round"><path d="M12 18V5"/><path d="M15 13a4.17 4.17 0 0 1-3-4 4.17 4.17 0 0 1-3 4"/><path d="M17.598 6.5A3 3 0 1 0 12 5a3 3 0 1 0-5.598 1.5"/><path d="M17.997 5.125a4 4 0 0 1 2.526 5.77"/><path d="M18 18a4 4 0 0 0 2-7.464"/><path d="M19.967 17.483A4 4 0 1 1 12 18a4 4 0 1 1-7.967-.517"/><path d="M6 18a4 4 0 0 1-2-7.464"/><path d="M6.003 5.125a4 4 0 0 0-2.526 5.77"/></g><text x="74" y="602" font-family="Inter, 'Helvetica Neue', Helvetica, Arial, sans-serif" font-size="15" font-weight="600" fill="#C7C7CE">Memory</text><g transform="translate(349.8,589) scale(0.6666666666666666)" fill="none" stroke="#8B8B93" stroke-width="2" stroke-linecap="round" stroke-linejoin="round"><path d="M12 8V4H8"/><rect width="16" height="12" x="4" y="8" rx="2"/><path d="M2 14h2"/><path d="M20 14h2"/><path d="M15 13v2"/><path d="M9 13v2"/></g><text x="374.8" y="602" font-family="Inter, 'Helvetica Neue', Helvetica, Arial, sans-serif" font-size="15" font-weight="600" fill="#C7C7CE">Agents</text><g transform="translate(650.6,589) scale(0.6666666666666666)" fill="none" stroke="#8B8B93" stroke-width="2" stroke-linecap="round" stroke-linejoin="round"><path d="M2 10v3"/><path d="M6 6v11"/><path d="M10 3v18"/><path d="M14 8v7"/><path d="M18 5v13"/><path d="M22 10v3"/></g><text x="675.6" y="602" font-family="Inter, 'Helvetica Neue', Helvetica, Arial, sans-serif" font-size="15" font-weight="600" fill="#C7C7CE">Voice</text><g transform="translate(951.4000000000001,589) scale(0.6666666666666666)" fill="none" stroke="#8B8B93" stroke-width="2" stroke-linecap="round" stroke-linejoin="round"><path d="M21.42 10.922a1 1 0 0 0-.019-1.838L12.83 5.18a2 2 0 0 0-1.66 0L2.6 9.08a1 1 0 0 0 0 1.832l8.57 3.908a2 2 0 0 0 1.66 0z"/><path d="M22 10v6"/><path d="M6 12.5V16a6 3 0 0 0 12 0v-3.5"/></g><text x="976.4000000000001" y="602" font-family="Inter, 'Helvetica Neue', Helvetica, Arial, sans-serif" font-size="15" font-weight="600" fill="#C7C7CE">Learning</text><g transform="translate(1252.2,589) scale(0.6666666666666666)" fill="none" stroke="#8B8B93" stroke-width="2" stroke-linecap="round" stroke-linejoin="round"><path d="M20 13c0 5-3.5 7.5-7.66 8.95a1 1 0 0 1-.67-.01C7.5 20.5 4 18 4 13V6a1 1 0 0 1 1-1c2 0 4.5-1.2 6.24-2.72a1.17 1.17 0 0 1 1.52 0C14.51 3.81 17 5 19 5a1 1 0 0 1 1 1z"/></g><text x="1277.2" y="602" font-family="Inter, 'Helvetica Neue', Helvetica, Arial, sans-serif" font-size="15" font-weight="600" fill="#C7C7CE">Security</text>
</svg>