<svg xmlns="http://www.w3.org/2000/svg" viewBox="0 0 512 512">
<defs>
<linearGradient id="tile" x1="0" y1="0" x2="0" y2="1"><stop offset="0" stop-color="#14151C"/><stop offset="1" stop-color="#08090D"/></linearGradient>
<radialGradient id="glow" cx="0.66" cy="0.24" r="0.55"><stop offset="0" stop-color="#1B47FF" stop-opacity="0.42"/><stop offset="1" stop-color="#1B47FF" stop-opacity="0"/></radialGradient>
</defs>
<rect x="8" y="8" width="496" height="496" rx="116" fill="url(#tile)" stroke="#2A2C36" stroke-width="2"/>
<rect x="8" y="8" width="496" height="496" rx="116" fill="url(#glow)"/>
<g transform="translate(106,106) scale(2.34)">
<rect x="4" y="104" width="27" height="21" rx="3" fill="#94C5FD"/><rect x="35" y="104" width="27" height="21" rx="3" fill="#94C5FD"/><rect x="66" y="104" width="27" height="21" rx="3" fill="#94C5FD"/><rect x="97" y="104" width="27" height="21" rx="3" fill="#94C5FD"/>
<rect x="35" y="79" width="27" height="21" rx="3" fill="#00339A"/><rect x="66" y="79" width="27" height="21" rx="3" fill="#00339A"/><rect x="97" y="79" width="27" height="21" rx="3" fill="#94C5FD"/>
<rect x="66" y="54" width="27" height="21" rx="3" fill="#94C5FD"/><rect x="97" y="54" width="27" height="21" rx="3" fill="#94C5FD"/>
<rect x="97" y="29" width="27" height="21" rx="3" fill="#00339A"/>
<rect x="97" y="4" width="27" height="21" rx="3" fill="#1B47FF"/>
</g>
</svg>
